<?xml version="1.0" standalone="no"?>
<!DOCTYPE svg PUBLIC "-//W3C//DTD SVG 20010904//EN"
 "http://www.w3.org/TR/2001/REC-SVG-20010904/DTD/svg10.dtd">
<svg version="1.0" xmlns="http://www.w3.org/2000/svg"
 width="731.000000pt" height="525.000000pt" viewBox="0 0 731.000000 525.000000"
 preserveAspectRatio="xMidYMid meet">
<metadata>
Created by potrace 1.15, written by Peter Selinger 2001-2017
</metadata>
<g transform="translate(0.000000,525.000000) scale(0.100000,-0.100000)"
fill="#000000" stroke="none">
<path d="M6892 2613 l3 -2518 153 -3 152 -3 0 2521 0 2520 -155 0 -155 0 2
-2517z"/>
<path d="M750 4955 c-267 -57 -470 -243 -519 -473 -14 -68 -14 -206 0 -274 25
-119 109 -241 222 -325 76 -55 210 -123 382 -193 395 -159 507 -271 492 -490
-6 -100 -36 -167 -98 -225 -166 -155 -453 -175 -740 -51 -77 34 -180 89 -225
122 -21 14 -23 11 -88 -105 -36 -66 -66 -124 -66 -129 0 -27 223 -141 364
-187 156 -50 223 -60 411 -60 146 0 182 3 254 23 330 90 521 331 521 657 0
197 -53 329 -185 460 -93 93 -164 134 -390 224 -198 79 -256 105 -336 152
-144 86 -200 163 -200 278 -2 333 421 434 891 212 35 -17 68 -28 73 -24 9 5
117 221 117 234 0 12 -168 90 -259 120 -184 63 -464 87 -621 54z"/>
<path d="M2467 3985 c-390 -82 -646 -442 -587 -826 40 -262 191 -456 427 -551
171 -68 376 -75 554 -17 64 20 226 97 235 110 4 7 -106 191 -130 216 -9 10
-20 7 -50 -13 -141 -96 -349 -114 -492 -44 -64 31 -194 155 -177 170 4 4 238
87 518 185 281 98 520 182 532 186 22 8 22 9 7 61 -76 260 -228 429 -453 505
-95 32 -277 40 -384 18z m273 -250 c25 -8 67 -32 95 -53 52 -40 125 -134 125
-162 0 -13 -90 -50 -385 -159 -212 -78 -390 -139 -395 -136 -26 16 -1 195 40
283 36 76 125 173 189 204 99 48 227 57 331 23z"/>
<path d="M4045 3986 c-162 -34 -273 -93 -386 -206 -94 -94 -140 -170 -181
-300 -30 -97 -33 -298 -5 -400 84 -307 333 -503 671 -526 264 -18 513 85 652
270 87 116 129 221 146 367 27 238 -57 473 -223 623 -68 61 -211 137 -304 162
-79 21 -291 27 -370 10z m249 -251 c154 -33 273 -150 323 -319 23 -78 20 -227
-7 -305 -72 -214 -258 -331 -476 -300 -214 30 -374 229 -374 465 0 220 146
416 341 459 83 18 110 18 193 0z"/>
<path d="M5237 3943 c-11 -11 -8 -1025 3 -1084 22 -118 114 -235 222 -284 226
-102 537 -15 688 194 l45 62 8 -73 c4 -40 10 -97 13 -125 l5 -53 135 0 134 0
0 685 0 686 -147 -3 -148 -3 -6 -380 c-5 -354 -7 -384 -27 -445 -44 -133 -130
-243 -226 -289 -123 -60 -281 -37 -346 51 -54 73 -54 76 -58 591 l-3 477 -143
0 c-78 0 -146 -3 -149 -7z"/>
<path d="M2330 2465 c-266 -59 -456 -226 -515 -453 -19 -74 -21 -228 -4 -298
41 -171 176 -319 376 -415 36 -17 142 -63 236 -103 339 -141 434 -216 473
-369 19 -71 14 -155 -11 -229 -24 -70 -91 -138 -177 -182 -219 -110 -491 -78
-791 94 -48 28 -91 50 -95 50 -4 0 -37 -54 -74 -120 l-67 -120 46 -31 c108
-75 308 -158 468 -195 115 -26 411 -27 510 0 337 89 535 336 535 664 -1 190
-55 328 -179 451 -96 96 -171 138 -434 245 -314 127 -421 195 -473 303 -70
142 -6 315 145 392 168 86 472 56 723 -70 32 -16 60 -29 63 -29 6 0 127 241
123 245 -2 2 -39 21 -83 43 -105 52 -209 89 -320 114 -120 26 -382 34 -475 13z"/>
<path d="M4045 1496 c-162 -34 -273 -93 -386 -206 -94 -94 -140 -170 -181
-300 -30 -97 -33 -298 -5 -400 84 -307 333 -503 671 -526 264 -18 513 85 652
270 87 116 129 221 146 367 27 238 -57 473 -223 623 -68 61 -211 137 -304 162
-79 21 -291 27 -370 10z m249 -251 c154 -33 273 -150 323 -319 23 -78 20 -227
-7 -305 -72 -214 -258 -331 -476 -300 -214 30 -374 229 -374 465 0 220 146
416 341 459 83 18 110 18 193 0z"/>
<path d="M5237 1453 c-11 -11 -8 -1025 3 -1084 22 -118 114 -235 222 -284 226
-102 537 -15 688 194 l45 62 8 -73 c4 -40 10 -97 13 -126 l5 -52 135 0 134 0
0 685 0 686 -147 -3 -148 -3 -6 -380 c-5 -354 -7 -384 -27 -445 -44 -133 -130
-243 -226 -289 -123 -60 -281 -37 -346 51 -54 73 -54 76 -58 591 l-3 477 -143
0 c-78 0 -146 -3 -149 -7z"/>
</g>
</svg>
